<svg xmlns:dc="http://purl.org/dc/elements/1.1/" xmlns:cc="http://creativecommons.org/ns#" xmlns:rdf="http://www.w3.org/1999/02/22-rdf-syntax-ns#" xmlns:svg="http://www.w3.org/2000/svg" xmlns="http://www.w3.org/2000/svg" viewBox="0 0 133.33333 133.33333" xml:space="preserve" version="1.1" x="0px" y="0px"><g transform="matrix(1.3333333,0,0,-1.3333333,0,133.33333)"><g transform="scale(0.1)"><path style="" d="m 258.508,588.074 482.984,0 c -8.398,77.371 -113.508,138.738 -241.496,138.738 -127.992,0 -233.094,-61.367 -241.488,-138.738 z m 493.519,-20 -504.058,0 c -5.524,0 -10,4.481 -10,10 0,93.043 117.547,168.738 262.027,168.738 144.484,0 262.031,-75.695 262.031,-168.738 0,-5.519 -4.468,-10 -10,-10" fill="#ffffff" fill-opacity="1" fill-rule="nonzero" stroke="none"></path><path style="" d="m 257.961,340.434 0.008,-28.368 c 0,-20.937 25.984,-38.878 47.254,-38.878 l 389.55,0 c 21.27,0 47.254,17.941 47.254,38.878 l 0,28.368 -484.066,0 z m 436.812,-87.246 -389.55,0 c -31.106,0 -67.254,25.722 -67.254,58.878 l -0.008,38.368 c 0,2.648 1.055,5.195 2.93,7.07 1.875,1.875 4.421,2.93 7.07,2.93 l 504.066,0 c 5.532,0 10,-4.473 10,-10 l 0,-38.368 c 0,-33.156 -36.148,-58.878 -67.254,-58.878" fill="#ffffff" fill-opacity="1" fill-rule="nonzero" stroke="none"></path><path style="" d="m 349.164,651.082 c 0,-6.441 -5.223,-11.664 -11.668,-11.664 -6.441,0 -11.664,5.223 -11.664,11.664 0,6.445 5.223,11.668 11.664,11.668 6.445,0 11.668,-5.223 11.668,-11.668" fill="#ffffff" fill-opacity="1" fill-rule="nonzero" stroke="none"></path><path style="" d="m 419.582,632.957 c 0,-6.441 -5.223,-11.664 -11.668,-11.664 -6.441,0 -11.668,5.223 -11.668,11.664 0,6.445 5.227,11.668 11.668,11.668 6.445,0 11.668,-5.223 11.668,-11.668" fill="#ffffff" fill-opacity="1" fill-rule="nonzero" stroke="none"></path><path style="" d="m 437.496,691.293 c 0,-6.445 -5.223,-11.668 -11.664,-11.668 -6.445,0 -11.668,5.223 -11.668,11.668 0,6.441 5.223,11.664 11.668,11.664 6.441,0 11.664,-5.223 11.664,-11.664" fill="#ffffff" fill-opacity="1" fill-rule="nonzero" stroke="none"></path><path style="" d="m 676.77,644.625 c 0,-6.445 -5.223,-11.668 -11.668,-11.668 -6.442,0 -11.664,5.223 -11.664,11.668 0,6.441 5.222,11.668 11.664,11.668 6.445,0 11.668,-5.227 11.668,-11.668" fill="#ffffff" fill-opacity="1" fill-rule="nonzero" stroke="none"></path><path style="" d="m 611.977,682.227 c 0,-6.442 -5.223,-11.665 -11.665,-11.665 -6.445,0 -11.667,5.223 -11.667,11.665 0,6.445 5.222,11.668 11.667,11.668 6.442,0 11.665,-5.223 11.665,-11.668" fill="#ffffff" fill-opacity="1" fill-rule="nonzero" stroke="none"></path><path style="" d="m 574.062,639.418 c 0,-6.445 -5.226,-11.668 -11.667,-11.668 -6.446,0 -11.668,5.223 -11.668,11.668 0,6.441 5.222,11.664 11.668,11.664 6.441,0 11.667,-5.223 11.667,-11.664" fill="#ffffff" fill-opacity="1" fill-rule="nonzero" stroke="none"></path><path style="" d="m 535.938,696.395 c 0,-6.442 -5.227,-11.668 -11.668,-11.668 -6.446,0 -11.668,5.226 -11.668,11.668 0,6.445 5.222,11.667 11.668,11.667 6.441,0 11.668,-5.222 11.668,-11.667" fill="#ffffff" fill-opacity="1" fill-rule="nonzero" stroke="none"></path><path style="" d="m 494.582,662.75 c 0,-6.445 -5.223,-11.668 -11.668,-11.668 -6.441,0 -11.668,5.223 -11.668,11.668 0,6.441 5.227,11.668 11.668,11.668 6.445,0 11.668,-5.227 11.668,-11.668" fill="#ffffff" fill-opacity="1" fill-rule="nonzero" stroke="none"></path><path style="" d="m 727.582,464.578 -48.652,0 c -10.422,-27.019 -22.571,-53.551 -32.16,-52.871 -16.926,1.199 -49.27,48.285 -133.438,52.871 l -240.918,0 c -22.918,0 -41.668,-18.75 -41.668,-41.668 0,-22.918 18.75,-41.668 41.668,-41.668 l 455.168,0 c 22.918,0 41.668,18.75 41.668,41.668 0,22.918 -18.75,41.668 -41.668,41.668" fill="#ffffff" fill-opacity="1" fill-rule="nonzero" stroke="none"></path><path style="" d="m 390.168,491.891 c -20.527,0 -39.773,8.683 -59.66,17.66 -3.61,1.625 -7.293,3.293 -11.074,4.945 -43.137,18.899 -59.735,6.789 -71.243,-9.109 -3.238,-4.469 -9.48,-5.485 -13.964,-2.239 -4.473,3.243 -5.473,9.493 -2.239,13.965 21.582,29.801 51.91,34.789 95.473,15.703 3.848,-1.683 7.598,-3.378 11.269,-5.035 34.129,-15.402 56.684,-25.57 88.172,-1.988 43.727,32.73 73.797,25.957 136.953,1.312 43.938,-17.14 63.973,-5.812 87.176,7.297 6.621,3.739 13.481,7.606 20.957,10.786 36.45,15.515 88.227,-22.876 93.996,-27.297 4.383,-3.356 5.227,-9.625 1.868,-14.008 -3.34,-4.406 -9.614,-5.227 -14.016,-1.875 -13.164,10.047 -52.188,34.101 -74.024,24.769 -6.457,-2.738 -12.519,-6.164 -18.945,-9.789 -24.148,-13.644 -51.523,-29.078 -104.277,-8.515 -59.336,23.144 -81.555,28.351 -117.699,1.308 -17.465,-13.078 -33.45,-17.886 -48.723,-17.89" fill="#ffffff" fill-opacity="1" fill-rule="nonzero" stroke="none"></path></g></g></svg>
